<svg xmlns="http://www.w3.org/2000/svg" xmlns:xlink="http://www.w3.org/1999/xlink" width="1000" zoomAndPan="magnify" viewBox="0 0 750 159.000002" height="212" preserveAspectRatio="xMidYMid meet" version="1.0"><defs><g/><clipPath id="5e40b2acd1"><path d="M 18.144531 0.757812 L 175.40625 0.757812 L 175.40625 158 L 18.144531 158 Z M 18.144531 0.757812 " clip-rule="nonzero"/></clipPath><clipPath id="c6618c8134"><path d="M 76.585938 59.199219 L 116.949219 59.199219 L 116.949219 99.5625 L 76.585938 99.5625 Z M 76.585938 59.199219 " clip-rule="nonzero"/></clipPath><clipPath id="df36d72d2b"><path d="M 96.769531 59.199219 C 85.621094 59.199219 76.585938 68.234375 76.585938 79.382812 C 76.585938 90.527344 85.621094 99.5625 96.769531 99.5625 C 107.914062 99.5625 116.949219 90.527344 116.949219 79.382812 C 116.949219 68.234375 107.914062 59.199219 96.769531 59.199219 Z M 96.769531 59.199219 " clip-rule="nonzero"/></clipPath><clipPath id="6f058ce3f4"><path d="M 0.585938 0.199219 L 40.949219 0.199219 L 40.949219 40.5625 L 0.585938 40.5625 Z M 0.585938 0.199219 " clip-rule="nonzero"/></clipPath><clipPath id="8e959a7493"><path d="M 20.769531 0.199219 C 9.621094 0.199219 0.585938 9.234375 0.585938 20.382812 C 0.585938 31.527344 9.621094 40.5625 20.769531 40.5625 C 31.914062 40.5625 40.949219 31.527344 40.949219 20.382812 C 40.949219 9.234375 31.914062 0.199219 20.769531 0.199219 Z M 20.769531 0.199219 " clip-rule="nonzero"/></clipPath><clipPath id="e70250e6a7"><rect x="0" width="41" y="0" height="41"/></clipPath><clipPath id="43f718e5c0"><rect x="0" width="540" y="0" height="125"/></clipPath><clipPath id="48c19b0514"><rect x="0" width="520" y="0" height="36"/></clipPath></defs><path fill="#004aad" d="M 173.347656 90.359375 L 173.347656 70.207031 L 156.4375 68.417969 C 154.984375 60.464844 151.984375 53.050781 147.753906 46.503906 L 158.683594 32.992188 L 144.433594 18.738281 L 131.203125 29.4375 C 124.28125 24.652344 116.320312 21.273438 107.722656 19.703125 L 105.933594 2.792969 L 85.78125 2.792969 L 84.199219 19.492188 C 75.496094 20.957031 67.433594 24.292969 60.429688 29.054688 L 47.457031 18.738281 L 33.207031 32.992188 L 43.90625 46.078125 C 39.105469 52.878906 35.761719 60.671875 34.164062 69.175781 L 18.144531 70.207031 L 18.144531 90.359375 L 34.390625 91.605469 C 36.109375 99.453125 39.359375 106.648438 43.796875 112.953125 L 33.207031 125.773438 L 47.457031 140.027344 L 60.011719 129.632812 C 67.003906 134.691406 75.175781 138.246094 84.023438 139.847656 L 85.78125 155.972656 L 105.933594 155.972656 L 107.898438 139.058594 C 116.363281 137.453125 124.207031 134.109375 131.015625 129.324219 L 144.433594 140.027344 L 158.683594 125.773438 L 147.59375 112.484375 C 152.078125 105.960938 155.421875 98.539062 157.230469 90.464844 Z M 96.769531 112.511719 C 78.476562 112.511719 63.617188 97.652344 63.617188 79.382812 C 63.617188 61.089844 78.476562 46.230469 96.769531 46.230469 C 115.042969 46.230469 129.90625 61.089844 129.90625 79.382812 C 129.90625 97.652344 115.042969 112.511719 96.769531 112.511719 Z M 96.769531 112.511719 " fill-opacity="1" fill-rule="nonzero"/><g clip-path="url(#5e40b2acd1)"><g clip-path="url(#c6618c8134)"><g clip-path="url(#df36d72d2b)"><path fill="#004aad" d="M 76.585938 59.199219 L 116.949219 59.199219 L 116.949219 99.5625 L 76.585938 99.5625 Z M 76.585938 59.199219 " fill-opacity="1" fill-rule="nonzero"/></g></g></g><g clip-path="url(#e70250e6a7)"><g clip-path="url(#6f058ce3f4)"><g clip-path="url(#8e959a7493)"><path fill="#004aad" d="M 0.585938 0.199219 L 40.949219 0.199219 L 40.949219 40.5625 L 0.585938 40.5625 Z M 0.585938 0.199219 " fill-opacity="1" fill-rule="nonzero"/></g></g></g><g clip-path="url(#43f718e5c0)"><path fill="#000000" d="M 230.085938 75.800781 C 230.085938 82.003906 232.398438 86.863281 237.054688 90.402344 C 241.699219 93.9375 248.746094 96.964844 258.183594 99.496094 C 267.617188 102.023438 274.769531 104.597656 279.625 107.21875 C 284.476562 109.839844 287.9375 112.867188 289.980469 116.308594 C 292.027344 119.742188 293.054688 123.820312 293.054688 128.535156 C 293.054688 136.273438 290.136719 142.628906 284.304688 147.597656 C 278.464844 152.566406 270.277344 155.054688 259.753906 155.054688 C 248.746094 155.054688 239.179688 152.515625 231.0625 147.449219 C 222.941406 142.382812 217.675781 135.648438 215.257812 127.25 L 232.277344 123.640625 C 233.742188 129.09375 236.976562 133.292969 241.96875 136.234375 C 246.964844 139.179688 253.210938 140.648438 260.707031 140.648438 C 268.203125 140.648438 273.882812 139.328125 277.757812 136.6875 C 281.632812 134.042969 283.574219 130.6875 283.574219 126.625 C 283.574219 122.5625 281.785156 119.300781 278.199219 116.835938 C 274.617188 114.363281 267.804688 111.796875 257.761719 109.128906 C 247.714844 106.457031 240.054688 103.734375 234.773438 100.960938 C 229.492188 98.1875 225.566406 95.035156 223 91.5 C 220.429688 87.964844 219.144531 83.734375 219.144531 78.816406 C 219.144531 71.359375 221.996094 65.257812 227.695312 60.519531 C 233.394531 55.78125 241.367188 53.40625 251.617188 53.40625 C 262.148438 53.40625 270.792969 55.820312 277.550781 60.644531 C 284.3125 65.472656 288.746094 72.011719 290.851562 80.273438 L 274.1875 83.734375 C 272.816406 78.84375 270.148438 75.085938 266.175781 72.460938 C 262.203125 69.835938 257.234375 68.527344 251.265625 68.527344 C 243.863281 68.527344 238.394531 69.722656 234.859375 72.113281 C 231.320312 74.5 230.085938 77.726562 230.085938 75.800781 Z M 230.085938 75.800781 " fill-opacity="1" fill-rule="nonzero"/><path fill="#000000" d="M 359.378906 83.734375 C 353.863281 83.734375 349.101562 85.574219 345.09375 89.246094 C 341.082031 92.921875 338.582031 97.492188 337.589844 102.964844 L 380.796875 102.964844 C 380.234375 97.582031 377.925781 93.046875 373.859375 89.371094 C 369.796875 85.695312 365.007812 83.855469 359.5 83.855469 Z M 365.933594 154.210938 C 353.164062 154.210938 342.953125 150.292969 335.304688 142.445312 C 327.652344 134.601562 323.828125 124.292969 323.828125 111.523438 C 323.828125 98.757812 327.675781 88.457031 335.367188 80.625 C 343.054688 72.796875 352.605469 68.882812 364.019531 68.882812 C 375.433594 68.882812 384.363281 72.796875 390.8125 80.625 C 397.257812 88.457031 400.480469 98.757812 400.480469 111.523438 L 400.480469 118.769531 L 337.558594 118.769531 C 338.554688 125.375 341.085938 130.503906 345.15625 134.160156 C 349.222656 137.8125 354.421875 139.644531 360.753906 139.644531 C 371.328125 139.644531 379.109375 135.203125 384.105469 126.324219 L 398.601562 132.792969 C 395.0625 140.226562 389.9375 145.96875 383.222656 150.019531 C 376.507812 154.074219 368.6875 156.101562 359.769531 156.101562 Z M 365.933594 154.210938 " fill-opacity="1" fill-rule="nonzero"/><path fill="#000000" d="M 439.28125 153.183594 L 421.019531 153.183594 L 421.019531 42.753906 L 439.28125 42.753906 Z M 439.28125 153.183594 " fill-opacity="1" fill-rule="nonzero"/><path fill="#000000" d="M 502.359375 68.527344 C 510.84375 68.527344 518.3125 70.917969 524.769531 75.703125 C 531.226562 80.488281 535.910156 86.722656 538.824219 94.410156 L 522.757812 99.925781 C 521.199219 95.210938 518.648438 91.476562 515.109375 88.738281 C 511.574219 85.992188 507.4375 84.621094 502.703125 84.621094 C 495.769531 84.621094 490.15625 87.40625 485.863281 93.976562 C 481.570312 100.546875 479.421875 109.023438 479.421875 119.414062 C 479.421875 129.808594 481.570312 138.289062 485.863281 144.859375 C 490.15625 151.425781 495.769531 154.710938 502.703125 154.710938 C 507.4375 154.710938 511.574219 153.339844 515.109375 150.597656 C 518.648438 147.851562 521.199219 144.117188 522.757812 139.398438 L 538.824219 144.914062 C 535.910156 152.597656 531.226562 158.835938 524.769531 163.621094 C 518.3125 168.40625 510.84375 170.796875 502.359375 170.796875 C 491.078125 170.796875 481.769531 167.011719 474.433594 159.4375 C 467.09375 151.863281 463.429688 141.878906 463.429688 129.476562 C 463.429688 117.078125 467.101562 107.066406 474.449219 99.445312 C 481.792969 91.824219 491.078125 88.015625 502.300781 88.015625 Z M 502.359375 68.527344 " fill-opacity="1" fill-rule="nonzero"/><path fill="#000000" d="M 546.644531 119.414062 C 546.644531 107.015625 550.332031 97.003906 557.710938 89.382812 C 565.085938 81.761719 574.351562 77.953125 585.511719 77.953125 C 596.671875 77.953125 605.941406 81.761719 613.320312 89.382812 C 620.699219 97.003906 624.386719 107.015625 624.386719 119.414062 C 624.386719 131.816406 620.699219 141.816406 613.320312 149.414062 C 605.941406 157.015625 596.671875 160.8125 585.511719 160.8125 C 574.351562 160.8125 565.085938 157.015625 557.710938 149.414062 C 550.332031 141.816406 546.644531 131.816406 546.644531 119.414062 Z M 562.632812 119.414062 C 562.632812 128.453125 564.78125 135.507812 569.074219 140.574219 C 573.367188 145.644531 578.792969 148.179688 585.355469 148.179688 C 591.917969 148.179688 597.34375 145.644531 601.636719 140.574219 C 605.929688 135.507812 608.078125 128.453125 608.078125 119.414062 C 608.078125 110.378906 605.929688 103.324219 601.636719 98.257812 C 597.34375 93.1875 591.917969 90.652344 585.355469 90.652344 C 578.792969 90.652344 573.367188 93.1875 569.074219 98.257812 C 564.78125 103.324219 562.632812 110.378906 562.632812 119.414062 Z M 562.632812 119.414062 " fill-opacity="1" fill-rule="nonzero"/></g><g clip-path="url(#48c19b0514)"><path fill="#000000" d="M 272.925781 35.691406 L 272.925781 0.589844 L 280.875 0.589844 L 298.738281 23.960938 L 298.738281 0.589844 L 306.691406 0.589844 L 306.691406 35.691406 L 298.738281 35.691406 L 280.875 12.324219 L 280.875 35.691406 Z M 272.925781 35.691406 " fill-opacity="1" fill-rule="nonzero"/><path fill="#000000" d="M 338.710938 18.140625 L 320.917969 18.140625 L 320.917969 28.738281 L 341.476562 28.738281 L 341.476562 35.691406 L 312.96875 35.691406 L 312.96875 0.589844 L 341.191406 0.589844 L 341.191406 7.542969 L 320.917969 7.542969 L 320.917969 11.183594 L 338.710938 11.183594 Z M 338.710938 18.140625 " fill-opacity="1" fill-rule="nonzero"/><path fill="#000000" d="M 369.058594 0.589844 L 377.007812 0.589844 L 391.023438 35.691406 L 382.5 35.691406 L 378.863281 25.664062 L 367.203125 25.664062 L 363.566406 35.691406 L 355.042969 35.691406 Z M 376.007812 18.710938 L 373.03125 9.820312 L 370.054688 18.710938 Z M 369.058594 0.589844 " fill-opacity="1" fill-rule="nonzero"/><path fill="#000000" d="M 414.519531 28.738281 L 429.105469 28.738281 L 429.105469 35.691406 L 406.570312 35.691406 L 406.570312 0.589844 L 414.519531 0.589844 Z M 414.519531 28.738281 " fill-opacity="1" fill-rule="nonzero"/><path fill="#000000" d="M 476.621094 18.140625 C 476.621094 21.691406 475.480469 24.542969 473.199219 26.6875 C 470.921875 28.832031 467.746094 29.90625 463.679688 29.90625 L 456.015625 29.90625 L 456.015625 35.691406 L 448.066406 35.691406 L 448.066406 0.589844 L 463.679688 0.589844 C 467.839844 0.589844 471.035156 1.664062 473.261719 3.808594 C 475.492188 5.953125 476.605469 8.898438 476.605469 12.644531 C 476.605469 14.503906 476.1875 16.230469 475.351562 17.816406 C 474.515625 19.40625 473.371094 20.644531 471.917969 21.527344 C 473.652344 22.226562 475.003906 23.375 475.972656 25.082031 C 476.945312 26.789062 477.433594 28.746094 477.433594 30.953125 L 477.433594 33.410156 C 477.433594 34.289062 477.523438 35.148438 477.699219 35.976562 C 477.878906 36.804688 478.15625 37.390625 478.535156 37.730469 L 478.535156 38.015625 L 470.160156 38.015625 C 469.875 37.582031 469.675781 36.914062 469.550781 36.011719 C 469.425781 35.109375 469.363281 34.210938 469.363281 33.3125 L 469.363281 30.761719 C 469.363281 29.011719 468.953125 27.664062 468.128906 26.71875 C 467.308594 25.773438 466.023438 25.300781 464.28125 25.300781 L 456.015625 25.300781 L 456.015625 35.691406 L 448.066406 35.691406 L 448.066406 29.90625 L 463.871094 29.90625 C 465.613281 29.90625 466.898438 29.476562 467.722656 28.613281 C 468.546875 27.753906 468.957031 26.566406 468.957031 25.054688 L 468.957031 12.644531 C 468.957031 10.988281 468.546875 9.757812 467.722656 8.945312 C 466.898438 8.132812 465.613281 7.730469 463.871094 7.730469 L 456.015625 7.730469 L 456.015625 22.148438 L 463.871094 22.148438 C 465.519531 22.148438 466.773438 21.734375 467.628906 20.902344 C 468.488281 20.074219 468.917969 18.972656 468.917969 17.597656 C 468.917969 16.226562 468.488281 15.128906 467.628906 14.300781 C 466.773438 13.472656 465.519531 13.058594 463.871094 13.058594 L 456.015625 13.058594 L 456.015625 7.730469 L 463.871094 7.730469 C 465.519531 7.730469 466.773438 7.316406 467.628906 6.492188 C 468.488281 5.664062 468.917969 4.5625 468.917969 3.1875 C 468.917969 1.8125 468.488281 0.710938 467.628906 -0.117188 C 466.773438 -0.945312 465.519531 -1.359375 463.871094 -1.359375 L 456.015625 -1.359375 L 456.015625 13.058594 L 463.871094 13.058594 C 467.839844 13.058594 471.035156 14.132812 473.261719 16.277344 C 475.492188 18.421875 476.605469 21.367188 476.605469 25.113281 Z M 476.621094 18.140625 " fill-opacity="1" fill-rule="nonzero"/></g></svg>
