<svg xmlns="http://www.w3.org/2000/svg" xmlns:xlink="http://www.w3.org/1999/xlink" width="1000" zoomAndPan="magnify" viewBox="0 0 750 159.000002" height="212" preserveAspectRatio="xMidYMid meet" version="1.0"><defs><g/><clipPath id="32bca9c70d"><path d="M 18.144531 0.757812 L 175.40625 0.757812 L 175.40625 158 L 18.144531 158 Z M 18.144531 0.757812 " clip-rule="nonzero"/></clipPath><clipPath id="d0db0e78b4"><path d="M 76.585938 59.199219 L 116.949219 59.199219 L 116.949219 99.5625 L 76.585938 99.5625 Z M 76.585938 59.199219 " clip-rule="nonzero"/></clipPath><clipPath id="3499379664"><path d="M 96.769531 59.199219 C 85.621094 59.199219 76.585938 68.234375 76.585938 79.382812 C 76.585938 90.527344 85.621094 99.5625 96.769531 99.5625 C 107.914062 99.5625 116.949219 90.527344 116.949219 79.382812 C 116.949219 68.234375 107.914062 59.199219 96.769531 59.199219 Z M 96.769531 59.199219 " clip-rule="nonzero"/></clipPath><clipPath id="367558a013"><path d="M 0.585938 0.199219 L 40.949219 0.199219 L 40.949219 40.5625 L 0.585938 40.5625 Z M 0.585938 0.199219 " clip-rule="nonzero"/></clipPath><clipPath id="e081a907b2"><path d="M 20.769531 0.199219 C 9.621094 0.199219 0.585938 9.234375 0.585938 20.382812 C 0.585938 31.527344 9.621094 40.5625 20.769531 40.5625 C 31.914062 40.5625 40.949219 31.527344 40.949219 20.382812 C 40.949219 9.234375 31.914062 0.199219 20.769531 0.199219 Z M 20.769531 0.199219 " clip-rule="nonzero"/></clipPath><clipPath id="0066e7b8e9"><rect x="0" width="41" y="0" height="41"/></clipPath><clipPath id="f7ce681dfc"><rect x="0" width="540" y="0" height="125"/></clipPath><clipPath id="4c71942329"><rect x="0" width="520" y="0" height="36"/></clipPath></defs><path fill="#004aad" d="M 173.347656 90.359375 L 173.347656 70.207031 L 156.4375 68.417969 C 154.984375 60.464844 151.984375 53.050781 147.753906 46.503906 L 158.683594 32.992188 L 144.433594 18.738281 L 131.203125 29.4375 C 124.28125 24.652344 116.320312 21.273438 107.722656 19.703125 L 105.933594 2.792969 L 85.78125 2.792969 L 83.992188 19.703125 C 75.542969 21.234375 67.695312 24.535156 60.867188 29.21875 L 47.28125 18.738281 L 33.03125 32.992188 L 44.015625 46.683594 C 39.890625 53.238281 36.941406 60.621094 35.523438 68.527344 L 18.503906 70.207031 L 18.503906 90.359375 L 35.414062 92.148438 C 36.867188 100.101562 39.867188 107.515625 44.097656 114.0625 L 33.167969 127.574219 L 47.417969 141.828125 L 60.648438 131.128906 C 67.566406 135.914062 75.527344 139.292969 84.128906 140.863281 L 85.917969 157.773438 L 106.070312 157.773438 L 107.859375 140.972656 C 116.179688 139.507812 123.914062 136.242188 130.648438 131.347656 L 144.570312 141.828125 L 158.820312 127.574219 L 147.839844 113.882812 C 151.960938 107.328125 154.910156 99.945312 156.328125 92.039062 Z M 96.769531 118.214844 C 75.300781 118.214844 57.9375 100.851562 57.9375 79.382812 C 57.9375 57.914062 75.300781 40.550781 96.769531 40.550781 C 118.234375 40.550781 135.601562 57.914062 135.601562 79.382812 C 135.601562 100.851562 118.234375 118.214844 96.769531 118.214844 Z M 96.769531 118.214844 " fill-opacity="1" fill-rule="nonzero"/><g clip-path="url(#32bca9c70d)"><g clip-path="url(#d0db0e78b4)"><g clip-path="url(#3499379664)"><g clip-path="url(#367558a013)"><g clip-path="url(#e081a907b2)"><g clip-path="url(#0066e7b8e9)"><path fill="#004aad" d="M 76.585938 59.199219 L 116.949219 59.199219 L 116.949219 99.5625 L 76.585938 99.5625 Z M 76.585938 59.199219 " fill-opacity="1" fill-rule="nonzero"/></g></g></g></g></g></g><g clip-path="url(#f7ce681dfc)"><path fill="#1a1a1a" d="M 185.269531 115.148438 L 203.832031 115.148438 C 202.847656 117.578125 201.519531 119.726562 199.851562 121.589844 C 198.1875 123.453125 196.210938 125 193.925781 126.230469 C 191.644531 127.457031 189.09375 128.382812 186.273438 129.007812 C 183.453125 129.628906 180.410156 129.941406 177.148438 129.941406 C 174.144531 129.941406 171.253906 129.566406 168.472656 128.820312 C 165.695312 128.070312 163.160156 126.894531 160.871094 125.289062 C 158.582031 123.6875 156.566406 121.628906 154.828125 119.109375 C 153.085938 116.585938 151.738281 113.542969 150.785156 109.976562 C 149.832031 106.410156 149.359375 102.308594 149.359375 97.667969 C 149.359375 93.027344 149.835938 88.925781 150.792969 85.359375 C 151.746094 81.796875 153.09375 78.753906 154.835938 76.234375 C 156.578125 73.710938 158.59375 71.652344 160.878906 70.050781 C 163.167969 68.445312 165.699219 67.269531 168.472656 66.519531 C 171.25 65.773438 174.140625 65.398438 177.148438 65.398438 C 180.386719 65.398438 183.417969 65.710938 186.238281 66.335938 C 189.058594 66.964844 191.605469 67.886719 193.878906 69.105469 C 196.152344 70.324219 198.125 71.816406 199.796875 73.582031 C 201.464844 75.347656 202.792969 77.375 203.777344 79.667969 L 185.023438 79.667969 C 184.246094 78.3125 183.222656 77.1875 181.949219 76.289062 C 180.675781 75.394531 179.21875 74.707031 177.578125 74.230469 C 175.941406 73.757812 174.1875 73.519531 172.3125 73.519531 C 170.226562 73.519531 168.328125 73.839844 166.621094 74.476562 C 164.914062 75.113281 163.441406 76.15625 162.207031 77.605469 C 160.96875 79.054688 160 80.980469 159.296875 83.386719 C 158.59375 85.789062 158.242188 88.761719 158.242188 92.300781 L 158.242188 103.035156 C 158.242188 106.574219 158.59375 109.546875 159.296875 111.949219 C 160.003906 114.355469 160.976562 116.28125 162.214844 117.730469 C 163.453125 119.179688 164.929688 120.222656 166.640625 120.859375 C 168.351562 121.496094 170.25 121.816406 172.335938 121.816406 C 174.210938 121.816406 175.957031 121.578125 177.578125 121.105469 C 179.199219 120.628906 180.648438 119.941406 181.921875 119.042969 C 183.199219 118.140625 184.234375 117.054688 185.023438 115.78125 Z M 185.269531 115.148438 " fill-opacity="1" fill-rule="nonzero"/></g><g clip-path="url(#4c71942329)"><path fill="#1a1a1a" d="M 207.121094 128.835938 L 207.121094 66.503906 L 233.410156 66.503906 C 237.519531 66.503906 241.070312 66.917969 244.058594 67.746094 C 247.050781 68.578125 249.503906 69.851562 251.425781 71.5625 C 253.34375 73.277344 254.738281 75.464844 255.605469 78.128906 C 256.46875 80.792969 256.902344 83.960938 256.902344 87.632812 C 256.902344 90.851562 256.46875 93.675781 255.605469 96.101562 C 254.738281 98.527344 253.375 100.578125 251.507812 102.253906 C 249.644531 103.933594 247.234375 105.226562 244.28125 106.140625 C 241.328125 107.054688 237.777344 107.511719 233.628906 107.511719 L 215.917969 107.511719 L 215.917969 128.835938 Z M 215.917969 99.390625 L 232.75 99.390625 C 234.835938 99.390625 236.660156 99.195312 238.21875 98.808594 C 239.78125 98.421875 241.0625 97.820312 242.058594 97.003906 C 243.054688 96.1875 243.789062 95.148438 244.257812 93.890625 C 244.726562 92.628906 244.960938 91.132812 244.960938 89.40625 C 244.960938 87.820312 244.726562 86.382812 244.257812 85.097656 C 243.789062 83.8125 243.058594 82.746094 242.058594 81.894531 C 241.0625 81.046875 239.765625 80.425781 238.171875 80.03125 C 236.578125 79.632812 234.726562 79.433594 232.613281 79.433594 L 215.917969 79.433594 Z M 215.917969 99.390625 " fill-opacity="1" fill-rule="nonzero"/></g><path fill="#1a1a1a" d="M 307.089844 128.835938 L 296.644531 107.238281 L 283.367188 107.238281 L 283.367188 128.835938 L 274.570312 128.835938 L 274.570312 66.503906 L 300.859375 66.503906 C 304.96875 66.503906 308.515625 66.917969 311.507812 67.746094 C 314.496094 68.578125 316.953125 69.851562 318.871094 71.5625 C 320.789062 73.277344 322.1875 75.464844 323.050781 78.128906 C 323.914062 80.792969 324.347656 83.960938 324.347656 87.632812 C 324.347656 90.851562 323.914062 93.675781 323.050781 96.101562 C 322.1875 98.527344 320.824219 100.578125 318.957031 102.253906 C 317.089844 103.933594 314.679688 105.226562 311.722656 106.140625 C 308.769531 107.054688 305.21875 107.511719 301.074219 107.511719 L 296.914062 107.511719 L 307.359375 128.835938 Z M 283.367188 99.390625 L 300.195312 99.390625 C 302.28125 99.390625 304.105469 99.195312 305.664062 98.808594 C 307.226562 98.421875 308.511719 97.820312 309.507812 97.003906 C 310.5 96.1875 311.234375 95.148438 311.703125 93.890625 C 312.171875 92.628906 312.40625 91.132812 312.40625 89.40625 C 312.40625 87.820312 312.171875 86.382812 311.703125 85.097656 C 311.234375 83.8125 310.503906 82.746094 309.507812 81.894531 C 308.511719 81.046875 307.207031 80.425781 305.617188 80.03125 C 304.023438 79.632812 302.171875 79.433594 300.058594 79.433594 L 283.367188 79.433594 Z M 283.367188 99.390625 " fill-opacity="1" fill-rule="nonzero"/><path fill="#1a1a1a" d="M 357.488281 66.503906 L 357.488281 128.835938 L 348.960938 128.835938 L 329.039062 88.328125 L 329.039062 128.835938 L 320.511719 128.835938 L 320.511719 66.503906 L 329.039062 66.503906 L 348.960938 107.011719 L 348.960938 66.503906 Z M 357.488281 66.503906 " fill-opacity="1" fill-rule="nonzero"/><path fill="#1a1a1a" d="M 393.96875 66.503906 L 393.96875 74.175781 L 375.765625 74.175781 L 375.765625 93.65625 L 392.859375 93.65625 L 392.859375 101.328125 L 375.765625 101.328125 L 375.765625 121.164062 L 393.96875 121.164062 L 393.96875 128.835938 L 366.96875 128.835938 L 366.96875 66.503906 Z M 393.96875 66.503906 " fill-opacity="1" fill-rule="nonzero"/><path fill="#1a1a1a" d="M 425.265625 128.835938 L 414.820312 107.238281 L 401.542969 107.238281 L 401.542969 128.835938 L 392.746094 128.835938 L 392.746094 66.503906 L 419.035156 66.503906 C 423.144531 66.503906 426.691406 66.917969 429.683594 67.746094 C 432.671875 68.578125 435.128906 69.851562 437.046875 71.5625 C 438.964844 73.277344 440.363281 75.464844 441.226562 78.128906 C 442.089844 80.792969 442.523438 83.960938 442.523438 87.632812 C 442.523438 90.851562 442.089844 93.675781 441.226562 96.101562 C 440.363281 98.527344 439 100.578125 437.132812 102.253906 C 435.265625 103.933594 432.855469 105.226562 429.898438 106.140625 C 426.945312 107.054688 423.394531 107.511719 419.25 107.511719 L 415.089844 107.511719 L 425.535156 128.835938 Z M 401.542969 99.390625 L 418.371094 99.390625 C 420.457031 99.390625 422.28125 99.195312 423.839844 98.808594 C 425.402344 98.421875 426.6875 97.820312 427.683594 97.003906 C 428.675781 96.1875 429.410156 95.148438 429.878906 93.890625 C 430.347656 92.628906 430.582031 91.132812 430.582031 89.40625 C 430.582031 87.820312 430.347656 86.382812 429.878906 85.097656 C 429.410156 83.8125 428.679688 82.746094 427.683594 81.894531 C 426.6875 81.046875 425.382812 80.425781 423.792969 80.03125 C 422.199219 79.632812 420.347656 79.433594 418.234375 79.433594 L 401.542969 79.433594 Z M 401.542969 99.390625 " fill-opacity="1" fill-rule="nonzero"/><path fill="#1a1a1a" d="M 527.382812 92.300781 L 527.382812 103.035156 C 527.382812 106.574219 527.03125 109.546875 526.324219 111.949219 C 525.621094 114.355469 524.644531 116.28125 523.402344 117.730469 C 522.164062 119.179688 520.6875 120.222656 518.976562 120.859375 C 517.269531 121.496094 515.371094 121.816406 513.285156 121.816406 C 511.199219 121.816406 509.300781 121.496094 507.589844 120.859375 C 505.882812 120.222656 504.410156 119.179688 503.171875 117.730469 C 501.933594 116.28125 500.957031 114.355469 500.25 111.949219 C 499.546875 109.546875 499.195312 106.574219 499.195312 103.035156 L 499.195312 92.300781 C 499.195312 88.761719 499.546875 85.789062 500.25 83.386719 C 500.957031 80.980469 501.933594 79.054688 503.171875 77.605469 C 504.410156 76.15625 505.882812 75.113281 507.589844 74.476562 C 509.300781 73.839844 511.199219 73.519531 513.285156 73.519531 C 515.371094 73.519531 517.269531 73.839844 518.976562 74.476562 C 520.6875 75.113281 522.164062 76.15625 523.402344 77.605469 C 524.644531 79.054688 525.621094 80.980469 526.324219 83.386719 C 527.03125 85.789062 527.382812 88.761719 527.382812 92.300781 Z M 536.179688 103.035156 L 536.179688 92.300781 C 536.179688 87.660156 535.703125 83.558594 534.746094 79.992188 C 533.789062 76.429688 532.4375 73.386719 530.695312 70.863281 C 528.953125 68.34375 526.9375 66.285156 524.652344 64.679688 C 522.363281 63.078125 519.828125 61.902344 517.050781 61.15625 C 514.269531 60.410156 511.382812 60.035156 508.378906 60.035156 C 505.375 60.035156 502.484375 60.410156 499.707031 61.15625 C 496.925781 61.902344 494.398438 63.078125 492.113281 64.679688 C 489.824219 66.285156 487.804688 68.34375 486.066406 70.863281 C 484.324219 73.386719 482.976562 76.429688 482.019531 79.992188 C 481.066406 83.558594 480.589844 87.660156 480.589844 92.300781 L 480.589844 103.035156 C 480.589844 107.675781 481.066406 111.777344 482.019531 115.34375 C 482.976562 118.90625 484.324219 121.949219 486.066406 124.472656 C 487.804688 126.992188 489.824219 129.050781 492.113281 130.65625 C 494.398438 132.257812 496.925781 133.433594 499.707031 134.179688 C 502.484375 134.925781 505.375 135.300781 508.378906 135.300781 C 511.382812 135.300781 514.269531 134.925781 517.050781 134.179688 C 519.828125 133.433594 522.363281 132.257812 524.652344 130.65625 C 526.9375 129.050781 528.953125 126.992188 530.695312 124.472656 C 532.4375 121.949219 533.789062 118.90625 534.746094 115.34375 C 535.703125 111.777344 536.179688 107.675781 536.179688 103.035156 Z M 536.179688 103.035156 " fill-opacity="1" fill-rule="nonzero"/><path fill="#1a1a1a" d="M 567.015625 66.503906 L 567.015625 74.175781 L 548.816406 74.175781 L 548.816406 93.65625 L 565.910156 93.65625 L 565.910156 101.328125 L 548.816406 101.328125 L 548.816406 121.164062 L 567.015625 121.164062 L 567.015625 128.835938 L 540.019531 128.835938 L 540.019531 66.503906 Z M 567.015625 66.503906 " fill-opacity="1" fill-rule="nonzero"/><path fill="#1a1a1a" d="M 598.3125 128.835938 L 587.867188 107.238281 L 574.589844 107.238281 L 574.589844 128.835938 L 565.792969 128.835938 L 565.792969 66.503906 L 592.078125 66.503906 C 596.191406 66.503906 599.738281 66.917969 602.730469 67.746094 C 605.71875 68.578125 608.175781 69.851562 610.09375 71.5625 C 612.011719 73.277344 613.410156 75.464844 614.269531 78.128906 C 615.136719 80.792969 615.570312 83.960938 615.570312 87.632812 C 615.570312 90.851562 615.136719 93.675781 614.269531 96.101562 C 613.410156 98.527344 612.046875 100.578125 610.179688 102.253906 C 608.3125 103.933594 605.902344 105.226562 602.945312 106.140625 C 599.992188 107.054688 596.441406 107.511719 592.296875 107.511719 L 588.136719 107.511719 L 598.582031 128.835938 Z M 574.589844 99.390625 L 591.417969 99.390625 C 593.503906 99.390625 595.328125 99.195312 596.886719 98.808594 C 598.449219 98.421875 599.730469 97.820312 600.730469 97.003906 C 601.722656 96.1875 602.457031 95.148438 602.925781 93.890625 C 603.394531 92.628906 603.628906 91.132812 603.628906 89.40625 C 603.628906 87.820312 603.394531 86.382812 602.925781 85.097656 C 602.457031 83.8125 601.726562 82.746094 600.730469 81.894531 C 599.730469 81.046875 598.429688 80.425781 596.839844 80.03125 C 595.246094 79.632812 593.394531 79.433594 591.28125 79.433594 L 574.589844 79.433594 Z M 574.589844 99.390625 " fill-opacity="1" fill-rule="nonzero"/><path fill="#1a1a1a" d="M 618.785156 128.835938 L 618.785156 66.503906 L 645.074219 66.503906 C 649.183594 66.503906 652.730469 66.917969 655.722656 67.746094 C 658.710938 68.578125 661.167969 69.851562 663.085938 71.5625 C 665.003906 73.277344 666.402344 75.464844 667.265625 78.128906 C 668.128906 80.792969 668.5625 83.960938 668.5625 87.632812 C 668.5625 90.851562 668.128906 93.675781 667.265625 96.101562 C 666.402344 98.527344 665.035156 100.578125 663.171875 102.253906 C 661.304688 103.933594 658.894531 105.226562 655.941406 106.140625 C 652.988281 107.054688 649.441406 107.511719 645.292969 107.511719 L 627.582031 107.511719 L 627.582031 128.835938 Z M 627.582031 99.390625 L 644.410156 99.390625 C 646.496094 99.390625 648.320312 99.195312 649.878906 98.808594 C 651.441406 98.421875 652.722656 97.820312 653.71875 97.003906 C 654.714844 96.1875 655.449219 95.148438 655.917969 93.890625 C 656.386719 92.628906 656.621094 91.132812 656.621094 89.40625 C 656.621094 87.820312 656.386719 86.382812 655.917969 85.097656 C 655.449219 83.8125 654.71875 82.746094 653.71875 81.894531 C 652.722656 81.046875 651.425781 80.425781 649.832031 80.03125 C 648.238281 79.632812 646.386719 79.433594 644.273438 79.433594 L 627.582031 79.433594 Z M 627.582031 99.390625 " fill-opacity="1" fill-rule="nonzero"/><path fill="#1a1a1a" d="M 703.964844 128.835938 L 693.519531 107.238281 L 680.242188 107.238281 L 680.242188 128.835938 L 671.445312 128.835938 L 671.445312 66.503906 L 697.730469 66.503906 C 701.84375 66.503906 705.390625 66.917969 708.382812 67.746094 C 711.371094 68.578125 713.828125 69.851562 715.746094 71.5625 C 717.664062 73.277344 719.0625 75.464844 719.921875 78.128906 C 720.789062 80.792969 721.222656 83.960938 721.222656 87.632812 C 721.222656 90.851562 720.789062 93.675781 719.921875 96.101562 C 719.0625 98.527344 717.699219 100.578125 715.832031 102.253906 C 713.964844 103.933594 711.554688 105.226562 708.597656 106.140625 C 705.644531 107.054688 702.09375 107.511719 697.949219 107.511719 L 693.789062 107.511719 L 704.234375 128.835938 Z M 680.242188 99.390625 L 697.070312 99.390625 C 699.15625 99.390625 700.980469 99.195312 702.539062 98.808594 C 704.101562 98.421875 705.382812 97.820312 706.378906 97.003906 C 707.375 96.1875 708.109375 95.148438 708.578125 93.890625 C 709.046875 92.628906 709.28125 91.132812 709.28125 89.40625 C 709.28125 87.820312 709.046875 86.382812 708.578125 85.097656 C 708.109375 83.8125 707.378906 82.746094 706.378906 81.894531 C 705.382812 81.046875 704.082031 80.425781 702.492188 80.03125 C 700.898438 79.632812 699.046875 79.433594 696.933594 79.433594 L 680.242188 79.433594 Z M 680.242188 99.390625 " fill-opacity="1" fill-rule="nonzero"/><path fill="#1a1a1a" d="M 750.859375 66.503906 L 750.859375 74.175781 L 739.066406 74.175781 L 739.066406 128.835938 L 730.269531 128.835938 L 730.269531 74.175781 L 718.476562 74.175781 L 718.476562 66.503906 Z M 750.859375 66.503906 " fill-opacity="1" fill-rule="nonzero"/><path fill="#1a1a1a" d="M 453.65625 118.589844 C 455.332031 119.664062 457.222656 120.515625 459.324219 121.148438 C 461.429688 121.777344 463.65625 122.089844 466.003906 122.089844 C 467.257812 122.089844 468.519531 122 469.792969 121.816406 C 471.0625 121.632812 472.21875 121.289062 473.253906 120.777344 C 474.292969 120.265625 475.128906 119.578125 475.761719 118.71875 C 476.398438 117.859375 476.714844 116.75 476.714844 115.394531 C 476.714844 113.742188 476.171875 112.472656 475.089844 111.585938 C 474.007812 110.699219 472.617188 109.976562 470.910156 109.414062 C 469.207031 108.855469 467.289062 108.347656 465.160156 107.890625 C 463.03125 107.433594 460.933594 106.90625 458.871094 106.296875 C 456.804688 105.691406 454.894531 104.921875 453.136719 103.988281 C 451.382812 103.054688 449.953125 101.820312 448.847656 100.28125 C 447.746094 98.738281 447.191406 96.78125 447.191406 94.410156 C 447.191406 91.328125 447.898438 88.683594 449.304688 86.476562 C 450.714844 84.265625 452.523438 82.472656 454.730469 81.089844 C 456.933594 79.707031 459.363281 78.699219 462.011719 78.058594 C 464.664062 77.421875 467.257812 77.101562 469.792969 77.101562 C 473.578125 77.101562 477.292969 77.667969 480.9375 78.804688 C 484.582031 79.9375 487.75 81.480469 490.441406 83.433594 L 485.34375 91.105469 C 482.933594 89.574219 480.296875 88.359375 477.433594 87.453125 C 474.574219 86.542969 471.714844 86.089844 468.859375 86.089844 C 467.601562 86.089844 466.339844 86.1875 465.066406 86.382812 C 463.796875 86.578125 462.636719 86.925781 461.582031 87.425781 C 460.523438 87.925781 459.675781 88.609375 459.03125 89.46875 C 458.394531 90.328125 458.074219 91.417969 458.074219 92.738281 C 458.074219 94.390625 458.617188 95.667969 459.703125 96.566406 C 460.789062 97.46875 462.179688 98.195312 463.878906 98.757812 C 465.582031 99.316406 467.496094 99.820312 469.621094 100.277344 C 471.75 100.734375 473.847656 101.253906 475.914062 101.832031 C 477.980469 102.410156 479.894531 103.167969 481.652344 104.101562 C 483.410156 105.039062 484.839844 106.28125 485.945312 107.835938 C 487.046875 109.386719 487.601562 111.363281 487.601562 113.761719 C 487.601562 116.816406 486.886719 119.429688 485.460938 121.605469 C 484.03125 123.78125 482.210938 125.550781 480.003906 126.917969 C 477.796875 128.28125 475.363281 129.269531 472.703125 129.878906 C 470.046875 130.492188 467.453125 130.796875 464.917969 130.796875 C 463.109375 130.796875 461.308594 130.664062 459.515625 130.398438 C 457.71875 130.132812 455.953125 129.734375 454.214844 129.207031 C 452.476562 128.679688 450.789062 128.023438 449.15625 127.234375 C 447.527344 126.445312 445.988281 125.53125 444.542969 124.480469 Z M 453.65625 118.589844 " fill-opacity="1" fill-rule="nonzero"/></svg>
