<svg xmlns="http://www.w3.org/2000/svg" xmlns:xlink="http://www.w3.org/1999/xlink" width="50" zoomAndPan="magnify" viewBox="0 0 37.5 37.499999" height="50" preserveAspectRatio="xMidYMid meet" version="1.0"><defs><clipPath id="544f0a0731"><path d="M 0 0 L 37.007812 0 L 37.007812 37.007812 L 0 37.007812 Z M 0 0 " clip-rule="nonzero"/></clipPath><clipPath id="033ee8d797"><path d="M 13.285156 13.285156 L 23.722656 13.285156 L 23.722656 23.722656 L 13.285156 23.722656 Z M 13.285156 13.285156 " clip-rule="nonzero"/></clipPath><clipPath id="bb2554166b"><path d="M 18.503906 13.285156 C 15.621094 13.285156 13.285156 15.621094 13.285156 18.503906 C 13.285156 21.386719 15.621094 23.722656 18.503906 23.722656 C 21.386719 23.722656 23.722656 21.386719 23.722656 18.503906 C 23.722656 15.621094 21.386719 13.285156 18.503906 13.285156 Z M 18.503906 13.285156 " clip-rule="nonzero"/></clipPath><clipPath id="2b271923c5"><path d="M 0.285156 0.285156 L 10.722656 0.285156 L 10.722656 10.722656 L 0.285156 10.722656 Z M 0.285156 0.285156 " clip-rule="nonzero"/></clipPath><clipPath id="5c689ca507"><path d="M 5.503906 0.285156 C 2.621094 0.285156 0.285156 2.621094 0.285156 5.503906 C 0.285156 8.386719 2.621094 10.722656 5.503906 10.722656 C 8.386719 10.722656 10.722656 8.386719 10.722656 5.503906 C 10.722656 2.621094 8.386719 0.285156 5.503906 0.285156 Z M 5.503906 0.285156 " clip-rule="nonzero"/></clipPath><clipPath id="da6bd0fc19"><rect x="0" width="11" y="0" height="11"/></clipPath></defs><path fill="#004aad" d="M 36.527344 21.089844 L 36.527344 16.34375 L 32.546875 15.925781 C 32.207031 14.050781 31.5 12.308594 30.503906 10.765625 L 33.078125 7.585938 L 29.722656 4.230469 L 26.609375 6.75 C 24.980469 5.625 23.105469 4.828125 21.082031 4.460938 L 20.660156 0.480469 L 15.917969 0.480469 L 15.488281 4.546875 C 13.632812 4.945312 11.910156 5.707031 10.398438 6.75 L 7.285156 4.230469 L 3.929688 7.585938 L 6.503906 10.765625 C 5.585938 12.1875 4.914062 13.78125 4.546875 15.488281 L 0.480469 15.917969 L 0.480469 20.660156 L 4.460938 21.082031 C 4.800781 22.953125 5.507812 24.699219 6.503906 26.238281 L 3.929688 29.421875 L 7.285156 32.773438 L 10.398438 30.257812 C 12.027344 31.382812 13.902344 32.179688 15.925781 32.546875 L 16.34375 36.527344 L 21.089844 36.527344 L 21.519531 32.460938 C 23.375 32.0625 25.097656 31.300781 26.609375 30.257812 L 29.722656 32.773438 L 33.078125 29.421875 L 30.503906 26.238281 C 31.421875 24.820312 32.09375 23.226562 32.460938 21.519531 Z M 24.867188 8.566406 L 28.441406 12.140625 C 27.453125 13.125 25.855469 13.125 24.867188 12.140625 C 23.878906 11.152344 23.878906 9.554688 24.867188 8.566406 Z M 21.03125 6.976562 C 21.03125 8.371094 19.898438 9.503906 18.503906 9.503906 C 17.109375 9.503906 15.976562 8.371094 15.976562 6.976562 Z M 12.140625 8.566406 C 13.125 9.554688 13.125 11.152344 12.140625 12.140625 C 11.152344 13.125 9.554688 13.125 8.566406 12.140625 Z M 6.976562 21.03125 L 6.976562 15.976562 C 8.371094 15.976562 9.503906 17.109375 9.503906 18.503906 C 9.503906 19.898438 8.371094 21.03125 6.976562 21.03125 Z M 12.140625 28.441406 L 8.566406 24.867188 C 9.554688 23.878906 11.152344 23.878906 12.140625 24.867188 C 13.125 25.855469 13.125 27.453125 12.140625 28.441406 Z M 15.976562 30.027344 C 15.976562 28.632812 17.109375 27.503906 18.503906 27.503906 C 19.898438 27.503906 21.03125 28.632812 21.03125 30.027344 Z M 18.503906 25.75 C 14.5 25.75 11.257812 22.503906 11.257812 18.503906 C 11.257812 14.5 14.5 11.257812 18.503906 11.257812 C 22.503906 11.257812 25.75 14.5 25.75 18.503906 C 25.75 22.503906 22.503906 25.75 18.503906 25.75 Z M 24.867188 28.441406 C 23.878906 27.453125 23.878906 25.855469 24.867188 24.867188 C 25.855469 23.878906 27.453125 23.878906 28.441406 24.867188 Z M 30.03125 21.03125 C 28.632812 21.03125 27.503906 19.898438 27.503906 18.503906 C 27.503906 17.109375 28.632812 15.976562 30.03125 15.976562 Z M 30.03125 21.03125 " fill-opacity="1" fill-rule="nonzero"/><g clip-path="url(#544f0a0731)"><path fill="#000000" d="M 21.089844 37.003906 L 16.34375 37.003906 C 16.101562 37.003906 15.898438 36.820312 15.871094 36.578125 L 15.488281 32.949219 C 13.675781 32.574219 11.976562 31.867188 10.425781 30.847656 L 7.585938 33.144531 C 7.394531 33.296875 7.121094 33.285156 6.949219 33.113281 L 3.59375 29.757812 C 3.421875 29.585938 3.40625 29.308594 3.558594 29.121094 L 5.917969 26.203125 C 5.027344 24.753906 4.402344 23.183594 4.058594 21.519531 L 0.429688 21.136719 C 0.1875 21.109375 0.00390625 20.90625 0.00390625 20.660156 L 0.00390625 15.917969 C 0.00390625 15.675781 0.1875 15.46875 0.429688 15.445312 L 4.15625 15.050781 C 4.515625 13.546875 5.109375 12.121094 5.917969 10.800781 L 3.558594 7.886719 C 3.40625 7.695312 3.421875 7.421875 3.59375 7.25 L 6.945312 3.894531 C 7.121094 3.722656 7.394531 3.707031 7.585938 3.863281 L 10.421875 6.15625 C 11.847656 5.222656 13.398438 4.550781 15.050781 4.15625 L 15.445312 0.429688 C 15.46875 0.1875 15.675781 0.00390625 15.917969 0.00390625 L 20.660156 0.00390625 C 20.90625 0.00390625 21.109375 0.1875 21.136719 0.429688 L 21.519531 4.058594 C 23.332031 4.433594 25.03125 5.140625 26.582031 6.15625 L 29.421875 3.863281 C 29.613281 3.707031 29.886719 3.722656 30.058594 3.894531 L 33.414062 7.25 C 33.585938 7.421875 33.601562 7.695312 33.445312 7.886719 L 31.089844 10.800781 C 31.980469 12.25 32.601562 13.824219 32.949219 15.488281 L 36.578125 15.871094 C 36.820312 15.898438 37.003906 16.101562 37.003906 16.34375 L 37.003906 21.089844 C 37.003906 21.332031 36.820312 21.535156 36.578125 21.5625 L 32.851562 21.957031 C 32.488281 23.460938 31.898438 24.886719 31.089844 26.207031 L 33.445312 29.121094 C 33.601562 29.308594 33.585938 29.585938 33.414062 29.757812 L 30.058594 33.113281 C 29.886719 33.285156 29.613281 33.296875 29.421875 33.144531 L 26.582031 30.847656 C 25.160156 31.78125 23.609375 32.453125 21.957031 32.851562 L 21.5625 36.578125 C 21.535156 36.820312 21.332031 37.003906 21.089844 37.003906 Z M 16.773438 36.050781 L 20.660156 36.050781 L 21.042969 32.410156 C 21.066406 32.207031 21.21875 32.039062 21.417969 31.996094 C 23.1875 31.613281 24.84375 30.898438 26.339844 29.863281 C 26.511719 29.746094 26.746094 29.753906 26.910156 29.886719 L 29.6875 32.132812 L 32.4375 29.386719 L 30.132812 26.539062 C 30.003906 26.378906 29.992188 26.15625 30.105469 25.980469 C 31.007812 24.582031 31.644531 23.046875 31.996094 21.417969 C 32.039062 21.214844 32.207031 21.066406 32.410156 21.042969 L 36.050781 20.660156 L 36.050781 16.773438 L 32.496094 16.398438 C 32.289062 16.375 32.117188 16.21875 32.078125 16.011719 C 31.753906 14.226562 31.089844 12.550781 30.105469 11.027344 C 29.992188 10.851562 30.003906 10.628906 30.132812 10.46875 L 32.4375 7.621094 L 29.6875 4.871094 L 26.910156 7.121094 C 26.746094 7.253906 26.511719 7.261719 26.339844 7.140625 C 24.722656 6.023438 22.925781 5.28125 20.996094 4.929688 C 20.789062 4.890625 20.628906 4.71875 20.609375 4.507812 L 20.230469 0.957031 L 16.347656 0.957031 L 15.960938 4.597656 C 15.941406 4.800781 15.789062 4.96875 15.589844 5.011719 C 13.820312 5.394531 12.164062 6.109375 10.667969 7.140625 C 10.496094 7.261719 10.261719 7.253906 10.097656 7.121094 L 7.316406 4.871094 L 4.570312 7.621094 L 6.875 10.46875 C 7.003906 10.628906 7.015625 10.851562 6.902344 11.027344 C 6 12.425781 5.363281 13.960938 5.011719 15.589844 C 4.96875 15.789062 4.800781 15.941406 4.597656 15.960938 L 0.957031 16.347656 L 0.957031 20.234375 L 4.507812 20.609375 C 4.71875 20.628906 4.890625 20.789062 4.929688 20.996094 C 5.253906 22.777344 5.917969 24.457031 6.902344 25.980469 C 7.015625 26.152344 7.003906 26.378906 6.875 26.539062 L 4.570312 29.386719 L 7.316406 32.132812 L 10.097656 29.886719 C 10.261719 29.753906 10.496094 29.742188 10.667969 29.863281 C 12.285156 30.980469 14.082031 31.726562 16.011719 32.078125 C 16.21875 32.117188 16.375 32.285156 16.398438 32.496094 Z M 21.03125 30.507812 L 15.976562 30.507812 C 15.714844 30.507812 15.5 30.292969 15.5 30.027344 C 15.5 28.375 16.847656 27.027344 18.503906 27.027344 C 20.160156 27.027344 21.507812 28.375 21.507812 30.027344 C 21.507812 30.292969 21.292969 30.507812 21.03125 30.507812 Z M 16.511719 29.550781 L 20.496094 29.550781 C 20.28125 28.652344 19.46875 27.980469 18.503906 27.980469 C 17.539062 27.980469 16.726562 28.652344 16.511719 29.550781 Z M 24.867188 28.917969 C 24.746094 28.917969 24.625 28.871094 24.53125 28.777344 C 23.964844 28.210938 23.652344 27.457031 23.652344 26.652344 C 23.652344 25.851562 23.960938 25.097656 24.53125 24.53125 C 25.097656 23.960938 25.851562 23.648438 26.652344 23.648438 C 27.457031 23.648438 28.210938 23.960938 28.777344 24.53125 C 28.867188 24.621094 28.917969 24.742188 28.917969 24.867188 C 28.917969 24.992188 28.867188 25.113281 28.777344 25.203125 L 25.203125 28.777344 C 25.113281 28.871094 24.988281 28.917969 24.867188 28.917969 Z M 26.652344 24.605469 C 26.105469 24.605469 25.589844 24.816406 25.203125 25.203125 C 24.816406 25.589844 24.605469 26.105469 24.605469 26.652344 C 24.605469 27.039062 24.710938 27.40625 24.90625 27.726562 L 27.726562 24.90625 C 27.40625 24.710938 27.039062 24.605469 26.652344 24.605469 Z M 12.140625 28.917969 C 12.011719 28.917969 11.890625 28.867188 11.800781 28.777344 L 8.230469 25.203125 C 8.042969 25.019531 8.042969 24.714844 8.230469 24.53125 C 8.796875 23.960938 9.550781 23.648438 10.355469 23.648438 C 11.15625 23.648438 11.910156 23.960938 12.476562 24.53125 C 13.648438 25.699219 13.648438 27.605469 12.476562 28.777344 C 12.386719 28.867188 12.265625 28.917969 12.140625 28.917969 Z M 9.28125 24.90625 L 12.101562 27.726562 C 12.585938 26.9375 12.484375 25.886719 11.800781 25.203125 C 11.414062 24.816406 10.902344 24.605469 10.351562 24.605469 C 9.96875 24.605469 9.601562 24.710938 9.28125 24.90625 Z M 18.503906 26.226562 C 14.246094 26.226562 10.78125 22.761719 10.78125 18.503906 C 10.78125 14.246094 14.246094 10.78125 18.503906 10.78125 C 22.761719 10.78125 26.226562 14.246094 26.226562 18.503906 C 26.226562 22.761719 22.761719 26.226562 18.503906 26.226562 Z M 18.503906 11.734375 C 14.769531 11.734375 11.734375 14.769531 11.734375 18.503906 C 11.734375 22.234375 14.769531 25.273438 18.503906 25.273438 C 22.234375 25.273438 25.273438 22.234375 25.273438 18.503906 C 25.273438 14.769531 22.234375 11.734375 18.503906 11.734375 Z M 30.03125 21.507812 C 28.375 21.507812 27.027344 20.160156 27.027344 18.503906 C 27.027344 16.847656 28.375 15.5 30.03125 15.5 C 30.292969 15.5 30.507812 15.714844 30.507812 15.976562 L 30.507812 21.03125 C 30.507812 21.292969 30.292969 21.507812 30.03125 21.507812 Z M 29.550781 16.511719 C 28.652344 16.726562 27.980469 17.539062 27.980469 18.503906 C 27.980469 19.46875 28.652344 20.28125 29.550781 20.496094 Z M 6.976562 21.507812 C 6.714844 21.507812 6.5 21.292969 6.5 21.03125 L 6.5 15.976562 C 6.5 15.714844 6.714844 15.5 6.976562 15.5 C 8.632812 15.5 9.980469 16.847656 9.980469 18.503906 C 9.980469 20.160156 8.632812 21.507812 6.976562 21.507812 Z M 7.453125 16.511719 L 7.453125 20.496094 C 8.355469 20.28125 9.027344 19.46875 9.027344 18.503906 C 9.027344 17.539062 8.355469 16.726562 7.453125 16.511719 Z M 10.351562 13.355469 C 9.550781 13.355469 8.796875 13.042969 8.230469 12.476562 C 8.042969 12.289062 8.042969 11.988281 8.230469 11.800781 L 11.800781 8.230469 C 11.890625 8.140625 12.011719 8.089844 12.140625 8.089844 C 12.265625 8.089844 12.386719 8.140625 12.476562 8.230469 C 13.648438 9.402344 13.648438 11.304688 12.476562 12.476562 C 11.910156 13.042969 11.15625 13.355469 10.351562 13.355469 Z M 9.28125 12.101562 C 9.601562 12.296875 9.96875 12.402344 10.351562 12.402344 C 10.902344 12.402344 11.414062 12.1875 11.800781 11.800781 C 12.484375 11.121094 12.585938 10.070312 12.101562 9.28125 Z M 26.652344 13.355469 C 25.851562 13.355469 25.097656 13.042969 24.53125 12.476562 C 23.964844 11.910156 23.652344 11.15625 23.652344 10.351562 C 23.652344 9.550781 23.964844 8.796875 24.53125 8.230469 C 24.714844 8.042969 25.019531 8.042969 25.203125 8.230469 L 28.777344 11.800781 C 28.964844 11.988281 28.964844 12.289062 28.777344 12.476562 C 28.210938 13.042969 27.457031 13.355469 26.652344 13.355469 Z M 24.90625 9.28125 C 24.710938 9.601562 24.605469 9.96875 24.605469 10.351562 C 24.605469 10.902344 24.816406 11.414062 25.203125 11.800781 C 25.589844 12.1875 26.105469 12.402344 26.652344 12.402344 C 27.039062 12.402344 27.40625 12.296875 27.726562 12.101562 Z M 18.503906 9.980469 C 16.847656 9.980469 15.5 8.632812 15.5 6.976562 C 15.5 6.714844 15.714844 6.5 15.976562 6.5 L 21.03125 6.5 C 21.292969 6.5 21.507812 6.714844 21.507812 6.976562 C 21.507812 8.632812 20.160156 9.980469 18.503906 9.980469 Z M 16.511719 7.453125 C 16.726562 8.355469 17.539062 9.027344 18.503906 9.027344 C 19.46875 9.027344 20.28125 8.355469 20.496094 7.453125 Z M 16.511719 7.453125 " fill-opacity="1" fill-rule="nonzero"/></g><g clip-path="url(#033ee8d797)"><g clip-path="url(#bb2554166b)"><g transform="matrix(1, 0, 0, 1, 13, 13)"><g clip-path="url(#da6bd0fc19)"><g clip-path="url(#2b271923c5)"><g clip-path="url(#5c689ca507)"><path fill="#000000" d="M 0.285156 0.285156 L 10.722656 0.285156 L 10.722656 10.722656 L 0.285156 10.722656 Z M 0.285156 0.285156 " fill-opacity="1" fill-rule="nonzero"/></g></g></g></g></g></g></svg>